<mxfile host="app.diagrams.net" modified="2024-07-15T14:05:58.234Z" agent="Mozilla/5.0 (Macintosh; Intel Mac OS X 10_15_7) AppleWebKit/537.36 (KHTML, like Gecko) Chrome/126.0.0.0 Safari/537.36" etag="SBJH-JIn2vaL5gjSW5MB" version="24.6.4" type="device">
  <diagram name="Page-1" id="RGzqTn_725ssrmu9BVKn">
    <mxGraphModel dx="2562" dy="1071" grid="1" gridSize="10" guides="1" tooltips="1" connect="1" arrows="1" fold="1" page="1" pageScale="1" pageWidth="850" pageHeight="1100" math="0" shadow="0">
      <root>
        <mxCell id="0" />
        <mxCell id="1" parent="0" />
        <mxCell id="ULb54bMJZMgr6OYoCBU_-32" style="edgeStyle=orthogonalEdgeStyle;rounded=0;orthogonalLoop=1;jettySize=auto;html=1;entryX=0.5;entryY=0;entryDx=0;entryDy=0;" parent="1" source="ULb54bMJZMgr6OYoCBU_-14" target="ULb54bMJZMgr6OYoCBU_-16" edge="1">
          <mxGeometry relative="1" as="geometry" />
        </mxCell>
        <mxCell id="ULb54bMJZMgr6OYoCBU_-14" value="" style="rounded=0;whiteSpace=wrap;html=1;fillColor=#FFFFFF;" parent="1" vertex="1">
          <mxGeometry x="-1090" y="210" width="500" height="190" as="geometry" />
        </mxCell>
        <mxCell id="ULb54bMJZMgr6OYoCBU_-59" style="edgeStyle=orthogonalEdgeStyle;rounded=0;orthogonalLoop=1;jettySize=auto;html=1;entryX=0.5;entryY=0;entryDx=0;entryDy=0;" parent="1" source="ULb54bMJZMgr6OYoCBU_-2" target="ULb54bMJZMgr6OYoCBU_-14" edge="1">
          <mxGeometry relative="1" as="geometry" />
        </mxCell>
        <mxCell id="ULb54bMJZMgr6OYoCBU_-2" value="Energy Consumption Data" style="whiteSpace=wrap;html=1;shape=mxgraph.basic.document" parent="1" vertex="1">
          <mxGeometry x="-780" y="50" width="80" height="100" as="geometry" />
        </mxCell>
        <mxCell id="ULb54bMJZMgr6OYoCBU_-58" style="edgeStyle=orthogonalEdgeStyle;rounded=0;orthogonalLoop=1;jettySize=auto;html=1;entryX=0.5;entryY=0;entryDx=0;entryDy=0;" parent="1" source="ULb54bMJZMgr6OYoCBU_-4" target="ULb54bMJZMgr6OYoCBU_-14" edge="1">
          <mxGeometry relative="1" as="geometry" />
        </mxCell>
        <mxCell id="ULb54bMJZMgr6OYoCBU_-4" value="Weather D&lt;span style=&quot;background-color: initial;&quot;&gt;ata&lt;/span&gt;" style="whiteSpace=wrap;html=1;shape=mxgraph.basic.document" parent="1" vertex="1">
          <mxGeometry x="-980" y="50" width="80" height="100" as="geometry" />
        </mxCell>
        <mxCell id="ULb54bMJZMgr6OYoCBU_-23" style="edgeStyle=orthogonalEdgeStyle;rounded=0;orthogonalLoop=1;jettySize=auto;html=1;entryX=0;entryY=0.5;entryDx=0;entryDy=0;" parent="1" source="ULb54bMJZMgr6OYoCBU_-5" target="ULb54bMJZMgr6OYoCBU_-6" edge="1">
          <mxGeometry relative="1" as="geometry" />
        </mxCell>
        <mxCell id="ULb54bMJZMgr6OYoCBU_-5" value="Data Compilation" style="rounded=1;whiteSpace=wrap;html=1;fillColor=#99CCFF;" parent="1" vertex="1">
          <mxGeometry x="-1080" y="220" width="120" height="60" as="geometry" />
        </mxCell>
        <mxCell id="ULb54bMJZMgr6OYoCBU_-24" style="edgeStyle=orthogonalEdgeStyle;rounded=0;orthogonalLoop=1;jettySize=auto;html=1;" parent="1" source="ULb54bMJZMgr6OYoCBU_-6" target="ULb54bMJZMgr6OYoCBU_-7" edge="1">
          <mxGeometry relative="1" as="geometry" />
        </mxCell>
        <mxCell id="ULb54bMJZMgr6OYoCBU_-6" value="Data cleaning" style="rounded=1;whiteSpace=wrap;html=1;fillColor=#99CCFF;" parent="1" vertex="1">
          <mxGeometry x="-900" y="220" width="120" height="60" as="geometry" />
        </mxCell>
        <mxCell id="ULb54bMJZMgr6OYoCBU_-28" style="edgeStyle=orthogonalEdgeStyle;rounded=0;orthogonalLoop=1;jettySize=auto;html=1;" parent="1" source="ULb54bMJZMgr6OYoCBU_-7" target="ULb54bMJZMgr6OYoCBU_-8" edge="1">
          <mxGeometry relative="1" as="geometry">
            <Array as="points">
              <mxPoint x="-660" y="300" />
              <mxPoint x="-1020" y="300" />
            </Array>
          </mxGeometry>
        </mxCell>
        <mxCell id="ULb54bMJZMgr6OYoCBU_-7" value="Feature Engineering 1" style="rounded=1;whiteSpace=wrap;html=1;fillColor=#99CCFF;" parent="1" vertex="1">
          <mxGeometry x="-720" y="220" width="120" height="60" as="geometry" />
        </mxCell>
        <mxCell id="ULb54bMJZMgr6OYoCBU_-26" style="edgeStyle=orthogonalEdgeStyle;rounded=0;orthogonalLoop=1;jettySize=auto;html=1;entryX=0;entryY=0.5;entryDx=0;entryDy=0;" parent="1" source="ULb54bMJZMgr6OYoCBU_-8" target="ULb54bMJZMgr6OYoCBU_-10" edge="1">
          <mxGeometry relative="1" as="geometry" />
        </mxCell>
        <mxCell id="ULb54bMJZMgr6OYoCBU_-8" value="Data Aggregation" style="rounded=1;whiteSpace=wrap;html=1;fillColor=#99CCFF;" parent="1" vertex="1">
          <mxGeometry x="-1080" y="330" width="120" height="60" as="geometry" />
        </mxCell>
        <mxCell id="ULb54bMJZMgr6OYoCBU_-27" style="edgeStyle=orthogonalEdgeStyle;rounded=0;orthogonalLoop=1;jettySize=auto;html=1;entryX=0;entryY=0.5;entryDx=0;entryDy=0;" parent="1" source="ULb54bMJZMgr6OYoCBU_-10" target="ULb54bMJZMgr6OYoCBU_-13" edge="1">
          <mxGeometry relative="1" as="geometry" />
        </mxCell>
        <mxCell id="ULb54bMJZMgr6OYoCBU_-10" value="Feature Engineering 2" style="rounded=1;whiteSpace=wrap;html=1;fillColor=#99CCFF;" parent="1" vertex="1">
          <mxGeometry x="-900" y="330" width="120" height="60" as="geometry" />
        </mxCell>
        <mxCell id="ULb54bMJZMgr6OYoCBU_-13" value="Feature Selection" style="rounded=1;whiteSpace=wrap;html=1;fillColor=#99CCFF;" parent="1" vertex="1">
          <mxGeometry x="-720" y="330" width="120" height="60" as="geometry" />
        </mxCell>
        <mxCell id="ULb54bMJZMgr6OYoCBU_-16" value="Train-test Splitting" style="rounded=1;whiteSpace=wrap;html=1;fillColor=#99CCFF;" parent="1" vertex="1">
          <mxGeometry x="-900" y="440" width="120" height="60" as="geometry" />
        </mxCell>
        <mxCell id="-RUjbeZ8SjBZqESLxLiC-6" style="edgeStyle=orthogonalEdgeStyle;rounded=0;orthogonalLoop=1;jettySize=auto;html=1;" parent="1" source="ULb54bMJZMgr6OYoCBU_-18" target="ULb54bMJZMgr6OYoCBU_-55" edge="1">
          <mxGeometry relative="1" as="geometry" />
        </mxCell>
        <mxCell id="ULb54bMJZMgr6OYoCBU_-18" value="Testing Data" style="shape=cylinder3;whiteSpace=wrap;html=1;boundedLbl=1;backgroundOutline=1;size=6.999999999999943;fillColor=#99FF99;" parent="1" vertex="1">
          <mxGeometry x="-1033" y="550" width="80" height="80" as="geometry" />
        </mxCell>
        <mxCell id="vTEf_BX0lDheICV2eWjj-47" style="edgeStyle=orthogonalEdgeStyle;rounded=0;orthogonalLoop=1;jettySize=auto;html=1;entryX=0.5;entryY=0;entryDx=0;entryDy=0;" edge="1" parent="1" source="ULb54bMJZMgr6OYoCBU_-20" target="vTEf_BX0lDheICV2eWjj-45">
          <mxGeometry relative="1" as="geometry" />
        </mxCell>
        <mxCell id="ULb54bMJZMgr6OYoCBU_-20" value="Training Data" style="shape=cylinder3;whiteSpace=wrap;html=1;boundedLbl=1;backgroundOutline=1;size=6.999999999999943;fillColor=#99FF99;" parent="1" vertex="1">
          <mxGeometry x="-720" y="550" width="80" height="80" as="geometry" />
        </mxCell>
        <mxCell id="ULb54bMJZMgr6OYoCBU_-30" style="edgeStyle=orthogonalEdgeStyle;rounded=0;orthogonalLoop=1;jettySize=auto;html=1;entryX=0.5;entryY=0;entryDx=0;entryDy=0;entryPerimeter=0;exitX=0.5;exitY=1;exitDx=0;exitDy=0;" parent="1" source="ULb54bMJZMgr6OYoCBU_-16" target="ULb54bMJZMgr6OYoCBU_-18" edge="1">
          <mxGeometry relative="1" as="geometry" />
        </mxCell>
        <mxCell id="ULb54bMJZMgr6OYoCBU_-31" style="edgeStyle=orthogonalEdgeStyle;rounded=0;orthogonalLoop=1;jettySize=auto;html=1;entryX=0.5;entryY=0;entryDx=0;entryDy=0;entryPerimeter=0;exitX=0.5;exitY=1;exitDx=0;exitDy=0;" parent="1" source="ULb54bMJZMgr6OYoCBU_-16" target="ULb54bMJZMgr6OYoCBU_-20" edge="1">
          <mxGeometry relative="1" as="geometry" />
        </mxCell>
        <mxCell id="ULb54bMJZMgr6OYoCBU_-44" style="edgeStyle=orthogonalEdgeStyle;rounded=0;orthogonalLoop=1;jettySize=auto;html=1;" parent="1" target="ULb54bMJZMgr6OYoCBU_-38" edge="1">
          <mxGeometry relative="1" as="geometry">
            <mxPoint x="-679.9230769230769" y="840" as="sourcePoint" />
          </mxGeometry>
        </mxCell>
        <mxCell id="ULb54bMJZMgr6OYoCBU_-49" style="edgeStyle=orthogonalEdgeStyle;rounded=0;orthogonalLoop=1;jettySize=auto;html=1;entryX=0.5;entryY=0;entryDx=0;entryDy=0;" parent="1" target="ULb54bMJZMgr6OYoCBU_-48" edge="1">
          <mxGeometry relative="1" as="geometry">
            <mxPoint x="-679.9999999999998" y="940" as="sourcePoint" />
          </mxGeometry>
        </mxCell>
        <mxCell id="-RUjbeZ8SjBZqESLxLiC-4" style="edgeStyle=orthogonalEdgeStyle;rounded=0;orthogonalLoop=1;jettySize=auto;html=1;entryX=1;entryY=0.5;entryDx=0;entryDy=0;" parent="1" source="ULb54bMJZMgr6OYoCBU_-38" edge="1">
          <mxGeometry relative="1" as="geometry">
            <Array as="points">
              <mxPoint x="-570" y="905" />
              <mxPoint x="-570" y="720" />
            </Array>
            <mxPoint x="-619.9999999999998" y="720" as="targetPoint" />
          </mxGeometry>
        </mxCell>
        <mxCell id="ULb54bMJZMgr6OYoCBU_-54" value="ML Algorithm" style="text;html=1;align=center;verticalAlign=middle;whiteSpace=wrap;rounded=0;" parent="1" vertex="1">
          <mxGeometry x="-638" y="680" width="115" height="30" as="geometry" />
        </mxCell>
        <mxCell id="ULb54bMJZMgr6OYoCBU_-57" style="edgeStyle=orthogonalEdgeStyle;rounded=0;orthogonalLoop=1;jettySize=auto;html=1;entryX=0.5;entryY=0;entryDx=0;entryDy=0;" parent="1" source="ULb54bMJZMgr6OYoCBU_-55" target="ULb54bMJZMgr6OYoCBU_-56" edge="1">
          <mxGeometry relative="1" as="geometry" />
        </mxCell>
        <mxCell id="ULb54bMJZMgr6OYoCBU_-55" value="Model" style="rhombus;whiteSpace=wrap;html=1;fillColor=#FFCCFF;" parent="1" vertex="1">
          <mxGeometry x="-1063" y="668" width="140" height="110" as="geometry" />
        </mxCell>
        <mxCell id="ULb54bMJZMgr6OYoCBU_-56" value="Predictions" style="rounded=1;whiteSpace=wrap;html=1;fillColor=#CCE5FF;" parent="1" vertex="1">
          <mxGeometry x="-1053" y="818" width="120" height="60" as="geometry" />
        </mxCell>
        <mxCell id="vTEf_BX0lDheICV2eWjj-49" style="edgeStyle=orthogonalEdgeStyle;rounded=0;orthogonalLoop=1;jettySize=auto;html=1;entryX=1;entryY=0.5;entryDx=0;entryDy=0;" edge="1" parent="1" source="vTEf_BX0lDheICV2eWjj-44" target="ULb54bMJZMgr6OYoCBU_-55">
          <mxGeometry relative="1" as="geometry" />
        </mxCell>
        <mxCell id="vTEf_BX0lDheICV2eWjj-44" value="Predictive Model" style="rhombus;whiteSpace=wrap;html=1;fillColor=#FFCCFF;" vertex="1" parent="1">
          <mxGeometry x="-749" y="796" width="140" height="110" as="geometry" />
        </mxCell>
        <mxCell id="vTEf_BX0lDheICV2eWjj-48" style="edgeStyle=orthogonalEdgeStyle;rounded=0;orthogonalLoop=1;jettySize=auto;html=1;entryX=0.5;entryY=0;entryDx=0;entryDy=0;" edge="1" parent="1" source="vTEf_BX0lDheICV2eWjj-45" target="vTEf_BX0lDheICV2eWjj-44">
          <mxGeometry relative="1" as="geometry" />
        </mxCell>
        <mxCell id="vTEf_BX0lDheICV2eWjj-45" value="" style="shape=image;html=1;verticalAlign=top;verticalLabelPosition=bottom;labelBackgroundColor=#ffffff;imageAspect=0;aspect=fixed;image=https://cdn4.iconfinder.com/data/icons/success-filloutline/64/brain-think-brainstorm-creative-idea-128.png" vertex="1" parent="1">
          <mxGeometry x="-720" y="670" width="82" height="82" as="geometry" />
        </mxCell>
      </root>
    </mxGraphModel>
  </diagram>
</mxfile>
